<svg xmlns="http://www.w3.org/2000/svg" viewBox="0 0 100 100" width="100" height="100">
  <!-- Server rack -->
  <rect x="15" y="10" width="70" height="80" fill="#00b894" rx="3" ry="3" stroke="#00a885" stroke-width="2"/>
  
  <!-- Servers -->
  <rect x="20" y="15" width="60" height="15" fill="#55efc4" rx="2" ry="2" stroke="#00a885" stroke-width="1"/>
  <circle cx="75" cy="22.5" r="2" fill="#00a885"/>
  <rect x="25" y="19" width="40" height="7" fill="#00a885" rx="1" ry="1" opacity="0.6"/>
  
  <rect x="20" y="35" width="60" height="15" fill="#55efc4" rx="2" ry="2" stroke="#00a885" stroke-width="1"/>
  <circle cx="75" cy="42.5" r="2" fill="#00a885"/>
  <rect x="25" y="39" width="40" height="7" fill="#00a885" rx="1" ry="1" opacity="0.6"/>
  
  <rect x="20" y="55" width="60" height="15" fill="#55efc4" rx="2" ry="2" stroke="#00a885" stroke-width="1"/>
  <circle cx="75" cy="62.5" r="2" fill="#00a885"/>
  <rect x="25" y="59" width="40" height="7" fill="#00a885" rx="1" ry="1" opacity="0.6"/>
  
  <rect x="20" y="75" width="60" height="15" fill="#55efc4" rx="2" ry="2" stroke="#00a885" stroke-width="1"/>
  <circle cx="75" cy="82.5" r="2" fill="#00a885"/>
  <rect x="25" y="79" width="40" height="7" fill="#00a885" rx="1" ry="1" opacity="0.6"/>
</svg>
